<svg xmlns="http://www.w3.org/2000/svg" width="551" height="551" version="1.2"><path fill-rule="evenodd" d="M152.9 60c70.3-.1 86.4.2 85.4 1.2-.9 1-1.2 32.2-1.3 272.3l218.5-.5V91.5L300 91l.1 175.5h129.4V299l-76.5-.2c-42.1 0-77 .1-77.5.5-.6.3-2.3 0-6.6-1.8v-237l219.6-.4 1.7 3.4c1.3 2.5 1.5 3.5.5 3.5-.8 0-1.4 2.5-1.9 7.2-.4 4-.8 74.1-.8 155.8-.1 81.7-.2 175.7-.3 209-.2 59.5-.2 60.5-2.2 61.2-1.1.3-96.2.6-420.5.8l-.2-219.8c-.1-120.9.2-220.2.7-220.5.5-.4 39.8-.7 87.4-.7M97 467.5l358.5-.5c0-101.6 0-102.1-2-101.6-1.1.3-57.4.6-125 .6-90.9 0-123.3-.3-124-1.2q-1.1-1.1.2-.4c1 .5 1.3-20.6 1.3-103.9V156l-52-.5V298h-32l.5-173.5 84-.5c-1.2-19-1.5-26.4-1.5-28.8V91H97zm265-347c1.9 0 4.1.6 4.7 1.2.7.7 1.9 1 2.5.6.7-.3 1.9.3 2.6 1.3s1.2 1.4 1.2.9c0-.6.7 0 1.7 1.2 1 1.3 2.1 1.9 2.5 1.5s1.6 1 2.8 3c1.1 2.1 2.7 3.8 3.5 3.8.9 0 1.3.6 1 1.5-.3.8-.1 1.7.5 2 .5.3.8.9.5 1.5-.3.5-.1 1 .5 1 .5 0 .8.7.5 1.5s-.1 1.5.5 1.5.8 2.1.5 5.2c-.3 2.9-.8 6.9-1.2 8.8s-.7 3.7-.8 4-.6 1.4-1 2.5c-.5 1.1-2.3 3.5-4 5.3-1.6 1.9-3.3 4-3.8 4.8-.4.8-1.4 1.4-2.2 1.4s-1.5.4-1.5 1c0 .5-.5.8-1 .5-.6-.3-1.6.1-2.3.8-.7.8-1.9 1.5-2.7 1.6s-4.9.3-9 .6c-4.1.2-8.1-.1-8.8-.6-.6-.5-1.5-.7-2-.5-.4.2-2.7-.6-5.2-1.9s-4.4-2.7-4.4-3.1c.1-.5-.2-.8-.7-.7-.5.2-1.3-.7-1.7-2-.5-1.2-1.6-2.5-2.5-3-1-.4-2.4-2.1-3.2-3.7s-1.3-3.5-1-4c.3-.6 0-1-.5-1-.6 0-.7-.8-.4-1.8.3-.9 0-3.6-.5-6-.9-3.2-.8-4 .1-3.5.9.6 1 .1.5-2-.4-1.5-.3-2.9.3-3.2.5-.3.8-1 .5-1.5-.3-.6-.1-1 .5-1 .5 0 .8-.9.5-2-.4-1.4.9-3.3 4.4-6.8 2.7-2.6 5.8-5.5 6.9-6.5 1.1-.9 3-1.7 4.1-1.7 1.2 0 1.9-.3 1.7-.8-.2-.4.6-.7 1.8-.6 1.1 0 3.9-.2 6.1-.5 2.1-.3 5.5-.6 7.5-.6m67.7 281-.4 4.5c-.2 2.5-.1 9.4.4 15.3.4 6 .6 11.3.3 11.8s-52 .8-121 .8c-66.3 0-122.3-.3-128.5-1.4l-.5-14.4c-.3-9.8-.1-14.7.7-15.5s33.8-1.1 249-1.1" style="fill:#fff"/></svg>