<svg xmlns="http://www.w3.org/2000/svg" width="543" height="549" version="1.2"><path fill-rule="evenodd" d="M149.8 55c70.4-.1 86.5.2 85.5 1.2-.9 1-1.2 32.2-1.3 272.3h219l-.5-242L297 86v176h129l.2 12.7c.2 7.1.2 14-.2 18.3l-77.3.1c-42.4.1-78.3 0-79.7-.1s-2.6-.3-2.7-.3c-.1-.1-.3-53.5-.4-237.2l108.6-.3c87.1-.2 108.7.1 109.8 1.1.6.7 2.1 2.3 3.2 3.7 1.1 1.3 1.4 2 .7 1.7-.6-.4-1.6-.1-2.1.5-.6.8-1.2 84.1-1.6 216.8-.4 118.5-.9 215.7-1.2 216s-94.7.6-209.9.7c-166.7.2-209.6 0-210.2-1-.4-.6-.7-99.5-.8-219.7 0-120.2.2-218.8.4-219.3.2-.4 39.3-.7 87-.7M94 462.5h359V360c-3.5.7-59.7 1-127.3 1H203V151c-4.3-.1-16-.2-28.8-.3l-23.2-.2V293h-32l.5-173.5 83.5-.5c0-19.8-.4-27.2-.8-29.3l-.7-3.7H94zm262-346.2c4.8.2 8.9 1 11.5 2.3 2.2 1 6 3.9 8.5 6.4 2.9 2.8 5.2 6.3 6.3 9.5.9 2.7 1.7 7.5 1.7 10.5s-.6 7.5-1.5 10c-.8 2.5-3.2 6.5-5.2 8.9-2.1 2.4-5.6 5.4-7.8 6.7s-6.5 2.8-9.5 3.5c-4.2.8-6.9.8-11.5-.1-3.3-.6-7-1.8-8.2-2.6-1.3-.8-3-1.2-3.8-.9s-1.3 0-1-.5c.3-.6-1.5-3.1-4-5.8-3.8-4-4.7-5.7-5.9-11.7-.8-3.9-1.4-8.7-1.3-10.8.1-2 .5-3.7 1-3.7.4 0 1-1.7 1.4-3.8.5-2.6 2.3-5.3 6.2-9.3 4-4.1 7-6.1 10.6-7.3 3.3-1 7.6-1.5 12.5-1.3M613.1 679c.4 0 .5.7.3 1.5s.3 1.7 1.1 2 1.5.9 1.5 1.5c0 .5-.7 1.2-1.5 1.5s-2.4-.4-3.5-1.5c-1.9-1.9-1.9-2.1-.2-3.5.9-.8 2-1.5 2.3-1.5m-16.4 9.4c.5.4.9 1.9 1.1 3.2.1 1.3-.2 2.6-.8 2.9-.5.3-1.4.3-2 0q-1-.5 0-2c.6-.8.9-1.8.9-2.3-.1-.4-.1-1.2 0-1.7 0-.6.4-.6.8-.1m-58 51.6c.7 0 1.3.3 1.4.7 0 .5.2 1.8.5 3 .2 1.4-.2 2.6-1.1 3-1 .5-2.2.2-3.1-.7-1.3-1.3-1.4-1.9-.3-3.8.7-1.2 1.9-2.2 2.6-2.2M179.1 395.7c1.1 1 28.6 1.2 247.4.8l.5 32.5H177v-16c0-10 .4-16 1-16s.7-.6.3-1.3c-.5-.9-.4-.9.8 0" style="fill:#0d1b1b"/></svg>