<svg viewBox="0 0 551 551" width="551" height="551" fill="none" stroke="white" stroke-width="12" xmlns="http://www.w3.org/2000/svg">
    <style>
    	path {
            stroke-dasharray: 5000;
            stroke-dashoffset: 5000;
            animation: draw 2s ease-in-out forwards, fillColor 1.2s ease-in forwards 1s, removeStroke 1.2s linear forwards 1.2s;
            fill: transparent;
            transition: stroke-dashoffset 2s linear;
        }
        svg:hover path {
            animation: drawInfinite 2s linear infinite;
        }
        @keyframes drawInfinite {
            0% {
                stroke-dashoffset: 5000;
            }
            50% {
                stroke-dashoffset: 0;
            }
            100% {
                stroke-dashoffset: -5000;
            }
        }
        @keyframes draw {
            to {
                stroke-dashoffset: 0;
            }
        }
        @keyframes fillColor {
            to {
                fill: white;
            }
        }
        @keyframes removeStroke {
            to {
                stroke: transparent;
            }
        }
    </style>
    <path fill-rule="evenodd" class="a" d="m152.9 60c70.3-0.1 86.4 0.2 85.4 1.2-0.9 1-1.2 32.2-1.3 272.3l218.5-0.5v-241.5l-155.5-0.5 0.1 175.5h129.4v32.5l-76.5-0.2c-42.1 0-77 0.1-77.5 0.5-0.6 0.3-2.3 0-6.6-1.8v-237l219.6-0.4 1.7 3.4c1.3 2.5 1.5 3.5 0.5 3.5-0.8 0-1.4 2.5-1.9 7.2-0.4 4-0.8 74.1-0.8 155.8-0.1 81.7-0.2 175.7-0.3 209-0.2 59.5-0.2 60.5-2.2 61.2-1.1 0.3-96.2 0.6-420.5 0.8l-0.2-219.8c-0.1-120.9 0.2-220.2 0.7-220.5 0.5-0.4 39.8-0.7 87.4-0.7zm-55.9 407.5l358.5-0.5c0-101.6 0-102.1-2-101.6-1.1 0.3-57.4 0.6-125 0.6-90.9 0-123.3-0.3-124-1.2q-1.1-1.1 0.2-0.4c1 0.5 1.3-20.6 1.3-103.9v-104.5l-52-0.5v142.5h-32l0.5-173.5 84-0.5c-1.2-19-1.5-26.4-1.5-28.8v-4.2h-108zm265-347c1.9 0 4.1 0.6 4.7 1.2 0.7 0.7 1.9 1 2.5 0.6 0.7-0.3 1.9 0.3 2.6 1.3 0.7 1 1.2 1.4 1.2 0.9 0-0.6 0.7 0 1.7 1.2 1 1.3 2.1 1.9 2.5 1.5 0.4-0.4 1.6 1 2.8 3 1.1 2.1 2.7 3.8 3.5 3.8 0.9 0 1.3 0.6 1 1.5-0.3 0.8-0.1 1.7 0.5 2 0.5 0.3 0.8 0.9 0.5 1.5-0.3 0.5-0.1 1 0.5 1 0.5 0 0.8 0.7 0.5 1.5-0.3 0.8-0.1 1.5 0.5 1.5 0.6 0 0.8 2.1 0.5 5.2-0.3 2.9-0.8 6.9-1.2 8.8-0.4 1.9-0.7 3.7-0.8 4-0.1 0.3-0.6 1.4-1 2.5-0.5 1.1-2.3 3.5-4 5.3-1.6 1.9-3.3 4-3.8 4.8-0.4 0.8-1.4 1.4-2.2 1.4-0.8 0-1.5 0.4-1.5 1 0 0.5-0.5 0.8-1 0.5-0.6-0.3-1.6 0.1-2.3 0.8-0.7 0.8-1.9 1.5-2.7 1.6-0.8 0.1-4.9 0.3-9 0.6-4.1 0.2-8.1-0.1-8.8-0.6-0.6-0.5-1.5-0.7-2-0.5-0.4 0.2-2.7-0.6-5.2-1.9-2.5-1.3-4.4-2.7-4.4-3.1 0.1-0.5-0.2-0.8-0.7-0.7-0.5 0.2-1.3-0.7-1.7-2-0.5-1.2-1.6-2.5-2.5-3-1-0.4-2.4-2.1-3.2-3.7-0.8-1.6-1.3-3.5-1-4 0.3-0.6 0-1-0.5-1-0.6 0-0.7-0.8-0.4-1.8 0.3-0.9 0-3.6-0.5-6-0.9-3.2-0.8-4 0.1-3.5 0.9 0.6 1 0.1 0.5-2-0.4-1.5-0.3-2.9 0.3-3.2 0.5-0.3 0.8-1 0.5-1.5-0.3-0.6-0.1-1 0.5-1 0.5 0 0.8-0.9 0.5-2-0.4-1.4 0.9-3.3 4.4-6.8 2.7-2.6 5.8-5.5 6.9-6.5 1.1-0.9 3-1.7 4.1-1.7 1.2 0 1.9-0.3 1.7-0.8-0.2-0.4 0.6-0.7 1.8-0.6 1.1 0 3.9-0.2 6.1-0.5 2.1-0.3 5.5-0.6 7.5-0.6zm67.7 281l-0.4 4.5c-0.2 2.5-0.1 9.4 0.4 15.3 0.4 6 0.6 11.3 0.3 11.8-0.3 0.5-52 0.8-121 0.8-66.3 0-122.3-0.3-128.5-1.4l-0.5-14.4c-0.3-9.8-0.1-14.7 0.7-15.5 0.8-0.8 33.8-1.1 249-1.1z"/>
</svg>

