<svg version="1.2" xmlns="http://www.w3.org/2000/svg" viewBox="0 0 543 549" width="543" height="549"><style>.a{fill:#0d1b1b}</style><path fill-rule="evenodd" class="a" d="m149.8 55c70.4-0.1 86.5 0.2 85.5 1.2-0.9 1-1.2 32.2-1.3 272.3h219l-0.5-242-155.5-0.5v176h129l0.2 12.7c0.2 7.1 0.2 14-0.2 18.3l-77.3 0.1c-42.4 0.1-78.3 0-79.7-0.1-1.4-0.1-2.6-0.3-2.7-0.3-0.1-0.1-0.3-53.5-0.4-237.2l108.6-0.3c87.1-0.2 108.7 0.1 109.8 1.1 0.6 0.7 2.1 2.3 3.2 3.7 1.1 1.3 1.4 2 0.7 1.7-0.6-0.4-1.6-0.1-2.1 0.5-0.6 0.8-1.2 84.1-1.6 216.8-0.4 118.5-0.9 215.7-1.2 216-0.3 0.3-94.7 0.6-209.9 0.7-166.7 0.2-209.6 0-210.2-1-0.4-0.6-0.7-99.5-0.8-219.7 0-120.2 0.2-218.8 0.4-219.3 0.2-0.4 39.3-0.7 87-0.7zm-55.8 407.5h359v-102.5c-3.5 0.7-59.7 1-127.3 1h-122.7v-210c-4.3-0.1-16-0.2-28.8-0.3l-23.2-0.2v142.5h-32l0.5-173.5 83.5-0.5c0-19.8-0.4-27.2-0.8-29.3l-0.7-3.7h-107.5zm262-346.2c4.8 0.2 8.9 1 11.5 2.3 2.2 1 6 3.9 8.5 6.4 2.9 2.8 5.2 6.3 6.3 9.5 0.9 2.7 1.7 7.5 1.7 10.5 0 3-0.6 7.5-1.5 10-0.8 2.5-3.2 6.5-5.2 8.9-2.1 2.4-5.6 5.4-7.8 6.7-2.2 1.3-6.5 2.8-9.5 3.5-4.2 0.8-6.9 0.8-11.5-0.1-3.3-0.6-7-1.8-8.2-2.6-1.3-0.8-3-1.2-3.8-0.9-0.8 0.3-1.3 0-1-0.5 0.3-0.6-1.5-3.1-4-5.8-3.8-4-4.7-5.7-5.9-11.7-0.8-3.9-1.4-8.7-1.3-10.8 0.1-2 0.5-3.7 1-3.7 0.4 0 1-1.7 1.4-3.8 0.5-2.6 2.3-5.3 6.2-9.3 4-4.1 7-6.1 10.6-7.3 3.3-1 7.6-1.5 12.5-1.3zm257.1 562.7c0.4 0 0.5 0.7 0.3 1.5-0.2 0.8 0.3 1.7 1.1 2 0.8 0.3 1.5 0.9 1.5 1.5 0 0.5-0.7 1.2-1.5 1.5-0.8 0.3-2.4-0.4-3.5-1.5-1.9-1.9-1.9-2.1-0.2-3.5 0.9-0.8 2-1.5 2.3-1.5zm-16.4 9.4c0.5 0.4 0.9 1.9 1.1 3.2 0.1 1.3-0.2 2.6-0.8 2.9-0.5 0.3-1.4 0.3-2 0q-1-0.5 0-2c0.6-0.8 0.9-1.8 0.9-2.3-0.1-0.4-0.1-1.2 0-1.7 0-0.6 0.4-0.6 0.8-0.1zm-58 51.6c0.7 0 1.3 0.3 1.4 0.7 0 0.5 0.2 1.8 0.5 3 0.2 1.4-0.2 2.6-1.1 3-1 0.5-2.2 0.2-3.1-0.7-1.3-1.3-1.4-1.9-0.3-3.8 0.7-1.2 1.9-2.2 2.6-2.2zm-359.6-344.3c1.1 1 28.6 1.2 247.4 0.8l0.5 32.5h-250v-16c0-10 0.4-16 1-16 0.6 0 0.7-0.6 0.3-1.3-0.5-0.9-0.4-0.9 0.8 0z"/></svg>